#!OML:ASF X:\für Bonn\!DataBase\2005_08_11_Bastian_Final\c3d\Bastian.ASF
:FULLY-SPECIFIED
:DEGREES
175
root -21.6134 17.5754 0.383507 136.656 -77.737 -143.019
lowerback 3.09811 1.15884 0.906835
upperback 4.31652 1.46556 -0.463738
thorax 2.73393 0.72444 -0.99518
lowerneck -2.11729 -7.2135 3.14653
upperneck 16.03 -12.7175 11.5248
head 5.80106 -5.62835 2.31565
rclavicle -2.05742e-014 1.59028e-015
rhumerus 18.1545 8.11212 -65.9395
rradius 88.0667
rwrist -34.3306
rhand -17.981 -2.43994
rfingers 7.12502
rthumb 8.28869 -32.2573
lclavicle -2.05742e-014 1.59028e-015
lhumerus -22.0539 -13.5182 87.5067
lradius 13.9565
lwrist 11.9036
lhand -11.7761 -7.9898
lfingers 7.12502
lthumb 14.2728 21.4997
rfemur -3.47808 -3.70841 23.1279
rtibia 33.8462
rfoot -11.6828 -9.21739
rtoes -13.4685
lfemur 0.701622 6.80981 -14.0426
ltibia 25.2779
lfoot -11.8329 -2.9781
ltoes -2.9105
176
root -21.6044 17.5716 0.387903 136.983 -77.6284 -143.386
lowerback 3.07142 1.04541 0.833001
upperback 4.35533 1.30983 -0.351108
thorax 2.78056 0.642339 -0.836461
lowerneck -1.78738 -7.22325 3.19988
upperneck 16.3941 -12.7707 11.3848
head 5.85019 -5.66206 2.27075
rclavicle -9.83984e-015 1.59028e-014
rhumerus 16.1015 8.71381 -66.7022
rradius 89.2861
rwrist -35.3929
rhand -17.361 -2.34961
rfingers 7.12502
rthumb 8.88697 -32.1425
lclavicle -9.83984e-015 1.59028e-014
lhumerus -22.1374 -13.8269 87.6452
lradius 14.1283
lwrist 12.1419
lhand -11.836 -8.17138
lfingers 7.12502
lthumb 14.2151 21.3222
rfemur -3.5432 -4.09521 23.1172
rtibia 34.1932
rfoot -11.74 -9.33096
rtoes -13.1695
lfemur 0.689715 6.92451 -14.0261
ltibia 25.3518
lfoot -11.8492 -2.98455
ltoes -2.65243
177
root -21.5967 17.5699 0.391945 137.421 -77.5178 -143.858
lowerback 3.03383 0.933954 0.740725
upperback 4.3839 1.15682 -0.238084
thorax 2.82341 0.561048 -0.667109
lowerneck -1.41131 -7.23217 3.24007
upperneck 16.7176 -12.8141 11.2539
head 5.87949 -5.69579 2.23416
rclavicle 1.68967e-015 2.54444e-014
rhumerus 14.0294 9.35736 -67.4753
rradius 90.4531
rwrist -36.57
rhand -16.7815 -2.36777
rfingers 7.12502
rthumb 9.44621 -32.1361
lclavicle 1.68967e-015 2.54444e-014
lhumerus -22.254 -14.0384 87.7748
lradius 14.279
lwrist 12.2165
lhand -11.9258 -8.3083
lfingers 7.12502
lthumb 14.1286 21.1913
rfemur -3.5943 -4.50197 23.0825
rtibia 34.5344
rfoot -11.7917 -9.45305
rtoes -12.8391
lfemur 0.693913 6.97181 -14.0481
ltibia 25.4001
lfoot -11.8776 -2.90223
ltoes -2.49347
178
root -21.5884 17.5679 0.396433 137.788 -77.3874 -144.273
lowerback 3.00222 0.816196 0.689668
upperback 4.43385 0.99473 -0.124508
thorax 2.88693 0.476069 -0.520351
lowerneck -1.10851 -7.23495 3.32819
upperneck 17.0533 -12.8459 11.0629
head 5.91831 -5.72041 2.16884
rclavicle -1.42131e-014 1.43125e-014
rhumerus 11.9899 10.054 -68.2552
rradius 91.5586
rwrist -37.8203
rhand -16.3175 -2.4215
rfingers 7.12502
rthumb 9.89386 -32.169
lclavicle -1.42131e-014 1.43125e-014
lhumerus -22.4136 -14.5563 87.9943
lradius 14.5135
lwrist 12.6282
lhand -12.0644 -8.33068
lfingers 7.12502
lthumb 13.9949 21.1782
rfemur -3.62258 -4.90435 23.0624
rtibia 34.8611
rfoot -11.8475 -9.59503
rtoes -12.2986
lfemur 0.716744 7.08421 -14.0301
ltibia 25.4346
lfoot -11.8857 -2.88183
ltoes -2.30194
